<svg width="77" height="77" viewBox="0 0 77 77" fill="none" xmlns="http://www.w3.org/2000/svg">
<path d="M66.1955 15.3358C66.9979 15.3218 67.6639 14.6518 67.6719 13.8474C67.6799 13.0149 66.9798 12.3208 66.1473 12.3349C65.3429 12.3489 64.6789 13.0169 64.6729 13.8213C64.6649 14.6558 65.363 15.3479 66.1975 15.3358H66.1955Z" fill="#FF5B35"/>
<path d="M76.8516 35.1971C76.5105 31.1791 75.5597 27.3116 74.0031 23.5925C73.307 21.9295 72.4986 20.3267 71.5758 18.7781C71.0161 17.8413 70.1736 17.5605 69.3792 18.0319C68.5949 18.4973 68.4505 19.3558 68.9961 20.3207C69.0322 20.3869 69.0703 20.4511 69.1084 20.5153C72.8235 26.9365 74.4524 33.8451 73.8666 41.2472C73.1304 50.543 69.2789 58.3423 62.4606 64.6872C62.3402 64.7996 62.2519 64.9841 62.0333 64.932C59.6101 54.4206 51.1468 47.3916 41.4859 46.208C35.3215 45.4538 29.6445 46.876 24.5734 50.4768C19.5223 54.0635 16.3749 58.9621 14.9446 65.0443C14.6899 64.8156 14.5174 64.6732 14.3569 64.5167C4.41318 54.8238 0.870601 43.1228 4.16645 29.6927C8.78424 10.8845 27.9816 -0.527576 46.8239 3.97788C51.7064 5.14537 56.1277 7.28977 60.1176 10.3349C60.938 10.9607 61.8487 10.8685 62.3803 10.1684C62.926 9.44822 62.7595 8.57963 61.937 7.94975C56.6653 3.92171 50.7616 1.38815 44.188 0.417246C43.2953 0.284851 42.3686 0.339013 41.508 0H35.3416C34.6074 0.148443 33.8571 0.0922756 33.1189 0.184551C29.0809 0.690061 25.2374 1.89165 21.5945 3.66896C17.1673 5.82941 13.2777 8.72807 9.94771 12.387C5.72109 17.0309 2.77629 22.3608 1.11934 28.4089C0.511528 30.6295 0.152455 32.8943 0 35.1911V41.6584C0.148443 42.3926 0.0882637 43.1449 0.184551 43.8791C0.722157 47.9613 1.92976 51.8469 3.74117 55.5339C6.14636 60.4265 9.45825 64.621 13.6327 68.1335C18.5354 72.2618 24.1301 74.9699 30.3828 76.3481C31.9695 76.6971 33.5843 76.8175 35.1911 77H41.508C42.2923 76.8576 43.0947 76.9178 43.8791 76.8175C48.2461 76.2578 52.3785 74.9118 56.2741 72.8957C60.8578 70.5247 64.8156 67.3371 68.1335 63.3693C72.2598 58.4366 75.002 52.8298 76.3661 46.545C76.7051 44.9804 76.8175 43.3916 77 41.8089V35.492C76.8335 35.4519 76.8616 35.3155 76.8516 35.1971ZM57.8709 68.2519C51.9893 72.0793 45.524 73.9469 38.3546 74.001C31.1651 73.9409 24.433 71.8968 18.3448 67.7383C17.7711 67.3472 17.6287 66.9741 17.7611 66.3402C19.3538 58.6793 23.6868 53.2069 31.0066 50.4206C43.0827 45.8249 56.0474 52.8158 59.0203 65.3552C59.3145 66.5963 58.9314 67.5618 57.8709 68.2519Z" fill="#FF5B35"/>
<path d="M24.9663 29.3555C24.9261 36.8619 30.9642 42.9842 38.4365 43.0123C45.8928 43.0383 52.003 36.9923 52.0351 29.5581C52.0652 22.0918 46.0372 15.9795 38.603 15.9414C31.1347 15.9033 25.0084 21.9293 24.9683 29.3555H24.9663ZM49.0261 29.4417C49.0382 35.2611 44.308 40.0053 38.4947 40.0033C32.7134 40.0033 27.9833 35.2832 27.9732 29.5079C27.9632 23.6865 32.6893 18.9484 38.5047 18.9484C44.288 18.9484 49.0161 23.6645 49.0261 29.4417Z" fill="#FF5B35"/>
</svg>
