<svg width="62" height="62" viewBox="0 0 62 62" fill="none" xmlns="http://www.w3.org/2000/svg">
<path d="M31 5.8125C17.1118 5.8125 5.8125 17.1118 5.8125 31C5.8125 44.8882 17.1118 56.1875 31 56.1875C44.8882 56.1875 56.1875 44.8882 56.1875 31C56.1875 17.1118 44.8882 5.8125 31 5.8125ZM44.1084 22.5586L27.8334 41.9336C27.6549 42.1462 27.4327 42.318 27.182 42.4373C26.9313 42.5566 26.6579 42.6206 26.3803 42.625H26.3476C26.076 42.6249 25.8075 42.5677 25.5595 42.4571C25.3114 42.3466 25.0894 42.1851 24.9078 41.9832L17.9328 34.2332C17.7556 34.0453 17.6178 33.8239 17.5275 33.582C17.4371 33.3401 17.396 33.0826 17.4066 32.8246C17.4172 32.5666 17.4793 32.3133 17.5891 32.0796C17.699 31.846 17.8545 31.6366 18.0464 31.4639C18.2384 31.2911 18.4629 31.1585 18.7069 31.0738C18.9508 30.9891 19.2092 30.954 19.4669 30.9706C19.7246 30.9871 19.9763 31.0551 20.2074 31.1703C20.4385 31.2856 20.6442 31.4459 20.8124 31.6418L26.2967 37.7352L41.1416 20.0664C41.4746 19.6815 41.9457 19.443 42.4531 19.4025C42.9605 19.3621 43.4634 19.523 43.8532 19.8504C44.2429 20.1778 44.4882 20.6454 44.536 21.1521C44.5837 21.6589 44.4301 22.1641 44.1084 22.5586Z" fill="#FFD371"/>
</svg>
