<svg width="32" height="40" viewBox="0 0 32 40" fill="none" xmlns="http://www.w3.org/2000/svg">
<path d="M15.9225 7.55931C17.6334 7.55931 19.0204 6.17233 19.0204 4.46142C19.0204 2.7505 17.6334 1.36353 15.9225 1.36353C14.2116 1.36353 12.8246 2.7505 12.8246 4.46142C12.8246 6.17233 14.2116 7.55931 15.9225 7.55931Z" stroke="#B3B3B3" stroke-width="1.56544" stroke-linejoin="round"/>
<path d="M11.9129 21.379C12.1375 19.9803 12.2382 18.6281 11.8742 17.6933C11.5644 16.8894 10.8906 16.4394 10.0774 16.1327L2.91123 13.814C1.98186 13.5042 1.11368 12.9853 1.0525 11.9599C0.97505 10.6433 2.13676 9.79134 3.29847 10.1011C3.29847 10.1011 10.1138 12.5128 15.9224 12.5128C21.7309 12.5128 28.4688 10.112 28.4688 10.112C29.8629 9.72474 30.7922 10.809 30.7922 11.9544C30.7922 13.055 29.9403 13.4422 28.9335 13.8085L22.1182 16.2799C21.4986 16.5122 20.4918 16.9769 20.1045 17.6879C19.6398 18.5204 19.7173 19.9749 19.9419 21.3736L20.3988 23.6683L23.2961 36.3619C23.513 37.3804 22.8082 38.3322 21.7937 38.5103C20.7791 38.6885 19.9496 37.9961 19.6491 37.011L16.7402 28.0325C16.6003 27.6019 16.4764 27.1664 16.3685 26.726L15.9224 24.9075L15.5119 26.5842C15.3818 27.1186 15.2321 27.6473 15.0627 28.1704L12.2049 37.0032C11.8951 37.9984 11.0819 38.6877 10.0674 38.5103C9.0528 38.333 8.33254 37.3029 8.56024 36.3619L11.456 23.6738L11.9129 21.379Z" stroke="#B3B3B3" stroke-width="1.56544" stroke-linejoin="round"/>
</svg>
