<svg width="26" height="30" viewBox="0 0 26 30" fill="none" xmlns="http://www.w3.org/2000/svg">
<path d="M5.15822 21.3939C4.35633 21.5114 3.0363 21.7302 2.15816 20.7339C1.28001 19.7376 0.520623 17.332 0.186865 15.1819C-0.305645 12.0131 0.183115 9.34241 1.5619 7.66237C2.37441 6.67298 3.44069 6.09984 4.64571 6.00859C5.67761 5.92921 7.21952 6.33297 8.7083 8.70802C9.64082 10.1962 10.3502 12.1731 10.6546 14.1313C11.0221 16.4951 11.3802 19.0176 10.1271 19.922C9.42019 20.4327 8.91268 20.6095 7.71328 20.8952C6.72701 21.1295 5.96074 21.2758 5.15822 21.3939ZM3.73194 23.4271L10.5377 22.0233C11.1127 21.9046 11.574 22.2208 11.7877 23.1683C12.489 26.2784 11.484 29.9997 8.33642 29.9997C5.35573 29.9997 3.36944 26.6022 3.04505 24.7759C2.89692 23.9477 3.10818 23.5552 3.73194 23.4271ZM18.2866 14.8957C17.0872 14.6113 16.5797 14.4331 15.8728 13.9225C14.6197 13.0181 14.9778 10.4956 15.3453 8.13176C15.6497 6.17359 16.3591 4.19417 17.2916 2.70852C18.7791 0.333464 20.3211 -0.070295 21.3542 0.00908174C22.558 0.100959 23.6249 0.672846 24.4374 1.66224C25.8174 3.34228 26.3062 6.01296 25.8124 9.18178C25.478 11.3318 24.7212 13.7294 23.838 14.7338C22.9549 15.7382 21.6423 15.5113 20.8379 15.3938C20.0335 15.2763 19.2723 15.1294 18.2866 14.8957ZM22.2673 17.427L15.4616 16.0232C14.8866 15.9044 14.4253 16.2207 14.2115 17.1682C13.5109 20.2783 14.5159 23.9996 17.6635 23.9996C20.6442 23.9996 22.6305 20.602 22.9549 18.7757C23.1024 17.9476 22.8911 17.5551 22.2673 17.427Z" fill="white"/>
</svg>
