<svg width="16" height="17" viewBox="0 0 16 17" fill="none" xmlns="http://www.w3.org/2000/svg">
<path fill-rule="evenodd" clip-rule="evenodd" d="M10.79 3.73753C11.0371 3.73904 11.2821 3.69132 11.5107 3.59715C11.7394 3.50297 11.9471 3.36421 12.1219 3.1889C12.2967 3.01359 12.4351 2.80522 12.529 2.57587C12.6229 2.34652 12.6706 2.10074 12.6691 1.85279C12.6608 1.35853 12.4592 0.887347 12.1079 0.540779C11.7565 0.19421 11.2835 0 10.7908 0C10.2981 0 9.82505 0.19421 9.4737 0.540779C9.12235 0.887347 8.92078 1.35853 8.91243 1.85279C8.91092 2.10063 8.95845 2.3463 9.05226 2.57558C9.14607 2.80486 9.2843 3.01318 9.45893 3.18848C9.63356 3.36378 9.84113 3.50258 10.0696 3.59682C10.2981 3.69107 10.5429 3.7389 10.79 3.73753ZM14.1919 4.02249C13.0925 5.5513 11.6394 5.729 10.0793 4.80477C9.86281 4.66112 9.63796 4.53051 9.40598 4.41363C6.88909 2.92003 4.37274 3.48887 2.70634 5.87148C1.99787 6.86721 3.66374 7.82719 4.33764 6.832C5.22322 5.58598 6.3221 5.23113 7.5279 5.62281C6.92527 6.72527 6.35774 7.78981 5.6131 9.28557C4.83281 10.8149 3.16749 12.0241 1.53618 11.0993C1.42681 11.0262 1.304 10.9757 1.17493 10.9508C1.04587 10.9259 0.913149 10.927 0.784539 10.9542C0.655928 10.9814 0.534012 11.034 0.425929 11.1091C0.317846 11.1841 0.225766 11.28 0.15508 11.3911C0.0843948 11.5023 0.0365235 11.6265 0.0142689 11.7565C-0.00798565 11.8864 -0.00417639 12.0195 0.0254737 12.148C0.0551239 12.2764 0.110019 12.3977 0.186946 12.5046C0.263873 12.6115 0.361285 12.702 0.473481 12.7706C1.46803 13.3395 2.63221 13.5339 3.75681 13.3188C4.8814 13.1037 5.89266 12.4933 6.60883 11.5972C6.64447 11.5972 6.71683 11.6324 6.75031 11.6324C7.80733 12.0734 8.79785 12.6602 9.69325 13.3758C10.1182 13.7306 10.8623 15.5428 11.2878 16.4692C11.8554 17.5716 13.5558 16.7888 13.025 15.6511C12.5282 14.6218 11.6777 12.5572 11.04 12.0241C10.2711 11.4288 9.46584 10.8824 8.62893 10.388C9.2321 9.25036 9.83473 8.1479 10.4725 7.04544C12.4931 7.64949 14.443 6.9371 15.8254 4.98247C16.5338 3.98728 14.9041 3.02676 14.1951 4.02249H14.1919Z" fill="white"/>
</svg>
