<svg width="31" height="27" viewBox="0 0 31 27" fill="none" xmlns="http://www.w3.org/2000/svg">
<path d="M3.96631 10.8328V25.0024C3.96631 25.2571 4.07371 25.5015 4.26489 25.6816C4.45607 25.8618 4.71536 25.963 4.98573 25.963H11.1023V17.7975C11.1023 17.4153 11.2634 17.0488 11.5501 16.7786C11.8369 16.5083 12.2258 16.3565 12.6314 16.3565H17.7285C18.1341 16.3565 18.523 16.5083 18.8098 16.7786C19.0965 17.0488 19.2576 17.4153 19.2576 17.7975V25.963H25.3742C25.6445 25.963 25.9038 25.8618 26.095 25.6816C26.2862 25.5015 26.3936 25.2571 26.3936 25.0024V10.8328" stroke="#B3B3B3" stroke-width="1.77213" stroke-linecap="round" stroke-linejoin="round"/>
<path d="M29.4518 13.4747L15.8737 1.22642C15.5551 0.909404 14.8103 0.905801 14.486 1.22642L0.907959 13.4747M24.3547 8.85158V1.94691H21.2964V6.08971" stroke="#B3B3B3" stroke-width="1.77213" stroke-linecap="round" stroke-linejoin="round"/>
</svg>
