<svg width="25" height="31" viewBox="0 0 25 31" fill="none" xmlns="http://www.w3.org/2000/svg">
<path fill-rule="evenodd" clip-rule="evenodd" d="M10.1788 0.020156C11.8115 4.39402 11.0052 6.8329 9.13073 8.70741C7.15544 10.8238 3.99094 12.396 1.81408 15.4798C-1.10854 19.6118 -1.61244 28.6417 8.92917 31C4.49484 28.6619 3.5475 21.8895 8.32449 17.6769C7.09497 21.7685 9.39276 24.3888 12.2348 23.4415C15.0365 22.4941 16.8707 24.5098 16.8102 26.8075C16.7699 28.3797 16.1853 29.71 14.5325 30.4558C21.4259 29.2666 24.1671 23.5624 24.1671 19.249C24.1671 13.5247 19.0677 12.7588 21.6476 7.94148C18.5839 8.20351 17.556 10.2191 17.8381 13.4844C18.0195 15.6612 15.7822 17.1125 14.0891 16.1651C12.7387 15.3388 12.7588 13.7666 13.9682 12.5774C16.4877 10.0982 17.4955 4.33355 10.1788 0.0403121L10.1385 0L10.1788 0.020156Z" fill="#FF5C36"/>
</svg>
