<svg width="24" height="24" viewBox="0 0 24 24" fill="none" xmlns="http://www.w3.org/2000/svg">
<path d="M22.68 10.7074C22.9646 11.0623 23.1223 11.5234 23.1223 12C23.1223 12.4783 22.9646 12.9377 22.68 13.2926C20.88 15.4714 16.7829 19.7143 12 19.7143C7.21716 19.7143 3.12001 15.4714 1.32001 13.2926C1.03062 12.9241 0.874703 12.4685 0.877729 12C0.877729 11.5234 1.03544 11.0623 1.32001 10.7074C3.12001 8.52856 7.21716 4.28571 12 4.28571C16.7829 4.28571 20.88 8.52856 22.68 10.7074Z" stroke="#FF5C36" stroke-width="1.71429" stroke-linecap="round" stroke-linejoin="round"/>
<path d="M12.0001 15.4286C12.9094 15.4286 13.7815 15.0673 14.4245 14.4243C15.0675 13.7814 15.4287 12.9093 15.4287 12C15.4287 11.0907 15.0675 10.2186 14.4245 9.57562C13.7815 8.93263 12.9094 8.57141 12.0001 8.57141C11.0908 8.57141 10.2187 8.93263 9.57574 9.57562C8.93276 10.2186 8.57153 11.0907 8.57153 12C8.57153 12.9093 8.93276 13.7814 9.57574 14.4243C10.2187 15.0673 11.0908 15.4286 12.0001 15.4286Z" stroke="#FF5C36" stroke-width="1.71429" stroke-linecap="round" stroke-linejoin="round"/>
</svg>
