<svg width="30" height="30" viewBox="0 0 30 30" fill="none" xmlns="http://www.w3.org/2000/svg">
<path d="M14.8898 1.12646C12.1466 1.12646 9.46506 1.93991 7.18418 3.46395C4.9033 4.98798 3.12557 7.15415 2.0758 9.68853C1.02603 12.2229 0.751361 15.0117 1.28653 17.7021C1.8217 20.3926 3.14267 22.864 5.0824 24.8037C7.02213 26.7434 9.49349 28.0644 12.184 28.5996C14.8744 29.1347 17.6632 28.8601 20.1976 27.8103C22.732 26.7605 24.8981 24.9828 26.4222 22.7019C27.9462 20.421 28.7596 17.7395 28.7596 14.9963C28.7596 11.3178 27.2984 7.78993 24.6973 5.18884C22.0962 2.58774 18.5683 1.12646 14.8898 1.12646Z" stroke="#B3B3B3" stroke-width="1.77213" stroke-miterlimit="10"/>
<path d="M12.9987 7.43091C11.8765 7.43091 10.7795 7.76368 9.84641 8.38715C8.91332 9.01062 8.18607 9.89678 7.75662 10.9336C7.32717 11.9704 7.2148 13.1112 7.43373 14.2119C7.65267 15.3125 8.19307 16.3235 8.98659 17.1171C9.78011 17.9106 10.7911 18.451 11.8918 18.6699C12.9924 18.8888 14.1333 18.7765 15.1701 18.347C16.2069 17.9176 17.093 17.1903 17.7165 16.2572C18.34 15.3241 18.6727 14.2271 18.6727 13.1049C18.6727 12.3598 18.526 11.622 18.2408 10.9336C17.9557 10.2452 17.5377 9.61967 17.0109 9.09279C16.484 8.56591 15.8585 8.14796 15.1701 7.86282C14.4817 7.57767 13.7438 7.43091 12.9987 7.43091Z" stroke="#B3B3B3" stroke-width="1.77213" stroke-miterlimit="10"/>
<path d="M17.0684 17.1746L21.1946 21.3008" stroke="#B3B3B3" stroke-width="1.77213" stroke-miterlimit="10" stroke-linecap="round"/>
</svg>
