<svg width="16" height="14" viewBox="0 0 16 14" fill="none" xmlns="http://www.w3.org/2000/svg">
<path d="M7.9999 13.75C7.77409 13.7497 7.55359 13.6815 7.36709 13.5542C4.60416 11.6786 3.40779 10.3926 2.74791 9.58855C1.34166 7.87469 0.668418 6.11512 0.687402 4.20965C0.709551 2.02609 2.46139 0.25 4.59256 0.25C6.14225 0.25 7.21557 1.12293 7.84064 1.84996C7.86045 1.87276 7.88491 1.89104 7.91239 1.90357C7.93986 1.9161 7.96971 1.92258 7.9999 1.92258C8.0301 1.92258 8.05994 1.9161 8.08742 1.90357C8.11489 1.89104 8.13936 1.87276 8.15916 1.84996C8.78424 1.12223 9.85756 0.25 11.4072 0.25C13.5384 0.25 15.2903 2.02609 15.3124 4.21C15.3314 6.11582 14.6574 7.87539 13.2519 9.58891C12.592 10.3929 11.3956 11.6789 8.63271 13.5545C8.44617 13.6817 8.22568 13.7498 7.9999 13.75Z" fill="white"/>
</svg>
