<svg width="24" height="33" viewBox="0 0 24 33" fill="none" xmlns="http://www.w3.org/2000/svg">
<path d="M16.1727 1.0692L1 19.8214H9.85714L7.67676 31.8083C7.67261 31.8318 7.67367 31.856 7.67987 31.8791C7.68606 31.9021 7.69724 31.9235 7.71261 31.9418C7.72798 31.9601 7.74718 31.9748 7.76884 31.9848C7.7905 31.9949 7.81411 32.0001 7.83799 32C7.8634 32 7.88845 31.994 7.91116 31.9826C7.93386 31.9712 7.95359 31.9546 7.96877 31.9343L23.1429 13.1786H14.2857L16.4765 1.19029C16.4794 1.16641 16.4772 1.14217 16.4701 1.11919C16.463 1.09621 16.451 1.07502 16.435 1.05702C16.4191 1.03901 16.3994 1.02462 16.3775 1.01479C16.3555 1.00496 16.3317 0.999918 16.3076 1C16.2813 1.00011 16.2553 1.00643 16.2319 1.01845C16.2084 1.03047 16.1882 1.04786 16.1727 1.0692Z" stroke="#B3B3B3" stroke-width="1.41" stroke-linecap="round" stroke-linejoin="round"/>
</svg>
