<svg width="68" height="67" viewBox="0 0 68 67" fill="none" xmlns="http://www.w3.org/2000/svg">
<circle cx="34.0001" cy="33.0909" r="33.0909" fill="#FF5B35"/>
<path d="M29.8181 43.1534C29.4824 43.1528 29.1525 43.0648 28.8611 42.898C28.2048 42.5262 27.7969 41.8043 27.7969 41.0206V25.1612C27.7969 24.3754 28.2048 23.6557 28.8611 23.2838C29.1595 23.1123 29.4984 23.0241 29.8425 23.0285C30.1867 23.0328 30.5233 23.1295 30.8173 23.3084L44.3716 31.4219C44.654 31.599 44.8869 31.845 45.0483 32.1367C45.2098 32.4284 45.2944 32.7564 45.2944 33.0898C45.2944 33.4232 45.2098 33.7512 45.0483 34.043C44.8869 34.3347 44.654 34.5807 44.3716 34.7578L30.8151 42.8734C30.5142 43.0553 30.1697 43.1521 29.8181 43.1534Z" fill="white"/>
</svg>
