<svg width="23" height="23" viewBox="0 0 23 23" fill="none" xmlns="http://www.w3.org/2000/svg">
<path d="M19.5769 2.47363H3.42308C2.08485 2.47363 1 3.56641 1 4.91442V19.5592C1 20.9072 2.08485 21.9999 3.42308 21.9999H19.5769C20.9152 21.9999 22 20.9072 22 19.5592V4.91442C22 3.56641 20.9152 2.47363 19.5769 2.47363Z" stroke="#FF5B35" stroke-width="0.736842" stroke-linejoin="round"/>
<path d="M13.5262 11.3158C14.1366 11.3158 14.6314 10.8209 14.6314 10.2105C14.6314 9.60007 14.1366 9.10522 13.5262 9.10522C12.9157 9.10522 12.4209 9.60007 12.4209 10.2105C12.4209 10.8209 12.9157 11.3158 13.5262 11.3158Z" fill="#FF5C36"/>
<path d="M17.5789 11.3158C18.1893 11.3158 18.6842 10.8209 18.6842 10.2105C18.6842 9.60007 18.1893 9.10522 17.5789 9.10522C16.9685 9.10522 16.4736 9.60007 16.4736 10.2105C16.4736 10.8209 16.9685 11.3158 17.5789 11.3158Z" fill="#FF5C36"/>
<path d="M13.5262 15.3685C14.1366 15.3685 14.6314 14.8736 14.6314 14.2632C14.6314 13.6528 14.1366 13.158 13.5262 13.158C12.9157 13.158 12.4209 13.6528 12.4209 14.2632C12.4209 14.8736 12.9157 15.3685 13.5262 15.3685Z" fill="#FF5C36"/>
<path d="M17.5789 15.3685C18.1893 15.3685 18.6842 14.8736 18.6842 14.2632C18.6842 13.6528 18.1893 13.158 17.5789 13.158C16.9685 13.158 16.4736 13.6528 16.4736 14.2632C16.4736 14.8736 16.9685 15.3685 17.5789 15.3685Z" fill="#FF5C36"/>
<path d="M5.42118 15.3685C6.0316 15.3685 6.52644 14.8736 6.52644 14.2632C6.52644 13.6528 6.0316 13.158 5.42118 13.158C4.81076 13.158 4.31592 13.6528 4.31592 14.2632C4.31592 14.8736 4.81076 15.3685 5.42118 15.3685Z" fill="#FF5C36"/>
<path d="M9.47367 15.3685C10.0841 15.3685 10.5789 14.8736 10.5789 14.2632C10.5789 13.6528 10.0841 13.158 9.47367 13.158C8.86325 13.158 8.36841 13.6528 8.36841 14.2632C8.36841 14.8736 8.86325 15.3685 9.47367 15.3685Z" fill="#FF5C36"/>
<path d="M5.42118 19.421C6.0316 19.421 6.52644 18.9261 6.52644 18.3157C6.52644 17.7053 6.0316 17.2104 5.42118 17.2104C4.81076 17.2104 4.31592 17.7053 4.31592 18.3157C4.31592 18.9261 4.81076 19.421 5.42118 19.421Z" fill="#FF5C36"/>
<path d="M9.47367 19.421C10.0841 19.421 10.5789 18.9261 10.5789 18.3157C10.5789 17.7053 10.0841 17.2104 9.47367 17.2104C8.86325 17.2104 8.36841 17.7053 8.36841 18.3157C8.36841 18.9261 8.86325 19.421 9.47367 19.421Z" fill="#FF5C36"/>
<path d="M13.5262 19.421C14.1366 19.421 14.6314 18.9261 14.6314 18.3157C14.6314 17.7053 14.1366 17.2104 13.5262 17.2104C12.9157 17.2104 12.4209 17.7053 12.4209 18.3157C12.4209 18.9261 12.9157 19.421 13.5262 19.421Z" fill="#FF5C36"/>
<path d="M5.05273 1V2.47368ZM17.9475 1V2.47368Z" fill="#FF5C36"/>
<path d="M5.05273 1V2.47368M17.9475 1V2.47368" stroke="#FF5B35" stroke-width="0.736842" stroke-linecap="round" stroke-linejoin="round"/>
<path d="M22 6.52637H1Z" fill="#FF5C36"/>
<path d="M22 6.52637H1" stroke="#FF5B35" stroke-width="0.736842" stroke-linejoin="round"/>
</svg>
