<svg width="30" height="30" viewBox="0 0 30 30" fill="none" xmlns="http://www.w3.org/2000/svg">
<path d="M24.4305 6.24887C24.4268 6.63785 24.7507 6.95841 25.139 6.95281L25.139 6.9528C25.5128 6.94609 25.8211 6.63578 25.8248 6.26115L25.8248 6.2611C25.8286 5.87286 25.504 5.55121 25.116 5.55775L25.1159 5.55775C24.7414 5.56429 24.4334 5.87374 24.4305 6.24887ZM24.4305 6.24887C24.4305 6.24882 24.4305 6.24877 24.4305 6.24872L24.5718 6.25007L24.4305 6.24902C24.4305 6.24897 24.4305 6.24892 24.4305 6.24887Z" fill="#B3B3B3" stroke="#B3B3B3" stroke-width="0.282644"/>
<path d="M29.2828 14.172L29.227 14.1586C29.0991 12.6556 28.7431 11.2087 28.1609 9.81761L28.0305 9.87217L28.1609 9.81761C27.9003 9.195 27.5976 8.59491 27.2521 8.01515L27.2521 8.01501C27.1361 7.82091 26.9823 7.68066 26.8015 7.61953C26.6175 7.55735 26.4231 7.58324 26.2444 7.68933C26.067 7.79455 25.9532 7.95125 25.9212 8.1423C25.8899 8.32888 25.9394 8.53044 26.0508 8.72787C26.0654 8.75444 26.0805 8.77986 26.0941 8.80287C27.4571 11.159 28.0539 13.6913 27.8391 16.4056C27.5701 19.8019 26.1689 22.6513 23.6852 24.9747C22.7162 21.1241 19.5737 18.554 15.9936 18.1155L15.9936 18.1155C13.6737 17.8316 11.5339 18.3676 9.62518 19.7229C7.78668 21.0284 6.61794 22.7967 6.05635 24.9774C6.04341 24.9655 6.03092 24.9538 6.0184 24.9416L6.01839 24.9416C2.36682 21.3821 1.06999 17.0954 2.2794 12.1672C3.97224 5.27233 11.0113 1.08598 17.9224 2.73851C19.7124 3.16653 21.3334 3.9526 22.7974 5.06993L22.7975 5.06995C22.9721 5.20317 23.1664 5.26723 23.3542 5.25191C23.5436 5.23647 23.7131 5.14122 23.8345 4.98133L23.8346 4.98122C23.9577 4.81878 24.0055 4.63109 23.9686 4.44472C23.9323 4.26059 23.8167 4.09386 23.6436 3.96123L23.6434 3.96113C21.6706 2.45374 19.4598 1.50482 16.9988 1.14133C16.8881 1.12492 16.7708 1.11549 16.6594 1.10653C16.6011 1.10184 16.5444 1.09728 16.4911 1.09191C16.3284 1.07554 16.1779 1.05072 16.0364 0.994978L16.0115 0.985143H15.9846H13.6987H13.6846L13.6707 0.987946C13.5463 1.0131 13.4182 1.02137 13.2812 1.02729C13.2602 1.0282 13.2389 1.02905 13.2173 1.02991C13.1016 1.03455 12.9788 1.03946 12.8573 1.05465L12.8573 1.05465C11.3437 1.24413 9.90396 1.69444 8.54075 2.35953L8.54074 2.35954C6.88371 3.16816 5.42734 4.25344 4.18075 5.62319C2.59907 7.36101 1.49647 9.35656 0.876297 11.6203L0.876288 11.6203C0.648239 12.4535 0.513726 13.3024 0.456645 14.1624L0.456334 14.1624V14.1718V16.5692V16.5834L0.459137 16.5972C0.484256 16.7214 0.492174 16.8495 0.497915 16.9867C0.498707 17.0056 0.499457 17.0248 0.500216 17.0442C0.504829 17.162 0.50973 17.2871 0.525947 17.4108L0.525957 17.4108C0.727346 18.94 1.17971 20.3952 1.85767 21.7751L1.85768 21.7752C2.75811 23.6068 3.99816 25.1772 5.56031 26.4916C7.39574 28.0372 9.49064 29.051 11.8301 29.5666L11.8302 29.5666C12.3011 29.6702 12.7802 29.7206 13.25 29.77C13.3765 29.7833 13.5022 29.7965 13.627 29.8107L13.635 29.8116H13.643H15.9846H15.9974L16.0099 29.8093C16.1445 29.7849 16.2827 29.7775 16.4296 29.7718C16.4463 29.7712 16.4632 29.7705 16.4802 29.7699C16.6096 29.7652 16.7462 29.7601 16.8815 29.7428L16.8816 29.7428C18.5179 29.5331 20.0656 29.0288 21.5233 28.2744C23.2394 27.3867 24.7213 26.1932 25.9631 24.7081C27.5074 22.862 28.5341 20.7627 29.0446 18.4106L29.0446 18.4106C29.1424 17.9592 29.1905 17.5004 29.2376 17.0503C29.252 16.9129 29.2663 16.7764 29.2819 16.6412L29.2828 16.6331V16.625V14.2833V14.172ZM7.47776 26.1203L7.47767 26.1202C7.38281 26.0556 7.34138 26.0041 7.32246 25.958C7.30376 25.9124 7.29843 25.8509 7.32 25.7476L7.32002 25.7475C7.90145 22.9509 9.47724 20.9638 12.1421 19.9494C16.5377 18.2766 21.2563 20.8197 22.3389 25.3862C22.3883 25.5945 22.3784 25.7685 22.3203 25.9149C22.2623 26.0612 22.1507 26.1934 21.9733 26.3089C19.8171 27.7121 17.4474 28.3972 14.8158 28.4173C12.1786 28.395 9.71077 27.6455 7.47776 26.1203Z" fill="#B3B3B3" stroke="#B3B3B3" stroke-width="0.282644"/>
<path d="M9.71471 11.8672H9.71204L9.71129 12.0078C9.69601 14.8679 11.9967 17.2017 14.8455 17.2124H14.8455C17.6872 17.2224 20.0161 14.9185 20.0283 12.0843V12.0842C20.0398 9.23908 17.7429 6.90917 14.9085 6.89464C12.11 6.88035 9.80501 9.1005 9.71471 11.8672ZM18.6303 12.0408V12.0408C18.6346 14.12 16.9443 15.8151 14.8676 15.8143H14.8676C12.8023 15.8143 11.1122 14.1276 11.1086 12.0648C11.105 9.98485 12.7938 8.29196 14.8713 8.29196C16.9373 8.29196 18.6267 9.97721 18.6303 12.0408Z" fill="#B3B3B3" stroke="#B3B3B3" stroke-width="0.282644"/>
</svg>
