<svg width="118" height="121" viewBox="0 0 118 121" fill="none" xmlns="http://www.w3.org/2000/svg">
<path d="M59.7957 120.58C27.1649 120.58 0.61792 94.0335 0.61792 61.4042C0.61792 28.7717 27.1649 2.22156 59.7957 2.22156C78.4932 2.22156 96.3006 11.2154 107.43 26.2803C107.958 26.9949 107.807 28.0024 107.092 28.5303C106.378 29.0598 105.369 28.9069 104.842 28.1923C94.3161 13.9451 77.4776 5.44054 59.7957 5.44054C28.9402 5.44054 3.83691 30.5454 3.83691 61.4042C3.83691 92.2582 28.9402 117.361 59.7957 117.361C86.7483 117.361 109.885 98.1634 114.808 71.7114C114.971 70.8391 115.808 70.2564 116.685 70.4238C117.559 70.5864 118.135 71.4265 117.972 72.3005C112.764 100.277 88.2982 120.58 59.7957 120.58Z" fill="#FF5C36"/>
<path d="M107.355 29.8839C107.267 29.8839 107.178 29.8774 107.09 29.8613L81.0868 25.5173C80.2112 25.3708 79.6189 24.542 79.7654 23.6648C79.9119 22.7876 80.7343 22.1985 81.6179 22.3418L105.483 26.3301L102.398 2.23439C102.285 1.35239 102.908 0.546035 103.79 0.433371C104.671 0.317487 105.477 0.943581 105.591 1.82558L108.952 28.07C109.018 28.5737 108.839 29.0807 108.472 29.4348C108.17 29.7245 107.769 29.8839 107.355 29.8839Z" fill="#FF5C36"/>
<path d="M72.0936 90.066H46.522C41.1238 90.066 36.7314 85.6737 36.7314 80.2755V60.5447C36.7314 56.389 39.334 52.8304 42.9956 51.4124V42.9723C42.9956 34.1876 50.1417 27.0415 58.9263 27.0415H60.288C69.0726 27.0415 76.2171 34.1876 76.2171 42.9723V51.6667C79.56 53.2263 81.8825 56.6191 81.8825 60.5447V80.2755C81.8842 85.6737 77.4918 90.066 72.0936 90.066ZM44.8481 54.1904C42.0331 54.9324 39.952 57.5011 39.952 60.5447V80.2755C39.952 83.8984 42.9006 86.847 46.5236 86.847H72.0936C75.7166 86.847 78.6652 83.8984 78.6652 80.2755V60.5447C78.6652 56.9217 75.7166 53.9731 72.0936 53.9731H46.522C46.0391 53.9731 45.5692 54.0246 45.1153 54.1244C45.0316 54.155 44.9399 54.1759 44.8481 54.1904ZM46.522 50.7558H72.0936C72.3978 50.7558 72.7004 50.7703 72.9998 50.7976V42.9723C72.9998 35.9629 67.2973 30.2605 60.2896 30.2605H58.928C51.9186 30.2605 46.2162 35.9629 46.2162 42.9723V50.7606C46.3176 50.7574 46.419 50.7558 46.522 50.7558ZM59.6088 79.7492C58.7203 79.7492 57.9993 79.0281 57.9993 78.1397V71.6502C57.9993 71.4667 58.0299 71.2913 58.0862 71.1271C57.7611 71.2172 57.4022 71.2044 57.0642 71.0692C54.526 70.0536 52.8859 67.6667 52.8859 64.9885C52.8859 61.3671 55.9021 58.4218 59.6104 58.4218C63.317 58.4218 66.3316 61.3671 66.3316 64.9885C66.3316 67.546 64.7929 69.8894 62.4141 70.9581C61.9602 71.1609 61.4661 71.1384 61.0525 70.9388C61.1571 71.1529 61.2183 71.3943 61.2183 71.6502V78.1397C61.2183 79.0281 60.4972 79.7492 59.6088 79.7492ZM59.6088 70.0407C59.8599 70.0407 60.0997 70.0986 60.3121 70.2017C60.3041 70.1839 60.296 70.1679 60.288 70.1502C59.9226 69.339 60.2864 68.3862 61.0959 68.0224C62.3224 67.472 63.1126 66.2809 63.1126 64.9885C63.1126 63.144 61.5418 61.6408 59.6104 61.6408C57.6774 61.6408 56.1049 63.1424 56.1049 64.9885C56.1049 66.3437 56.9499 67.5573 58.2584 68.0787C59.0599 68.399 59.4607 69.2891 59.1839 70.0954C59.3175 70.06 59.4607 70.0407 59.6088 70.0407Z" fill="#FF5C36"/>
</svg>
